<svg xmlns="http://www.w3.org/2000/svg" width="93" height="85" viewBox="0 0 93 85" fill="none"><path d="M17.7621 26.331C33.7046 36.9445 50.3454 46.1589 67.8018 54.0331C72.7259 56.2515 76.1174 48.5881 71.1962 46.3667C54.1898 38.7 37.979 29.7263 22.4496 19.3836C17.9587 16.3922 13.2682 23.3368 17.7621 26.331Z" fill="#ED1C24"/><path d="M54.1104 6.40534C53.6562 25.5378 49.5223 44.0254 41.9504 61.5954C39.8463 66.4721 46.9802 70.811 49.1565 65.8643C57.5798 46.7399 61.9636 26.6987 62.4669 5.8165C62.6015 0.422359 54.2342 1.05297 54.1104 6.40534Z" fill="#ED1C24"/><path d="M31.6387 8.48363C42.1582 32.0353 52.5696 55.6402 63.1273 79.1761C65.3394 84.0999 72.5831 79.9425 70.4223 75.0499C60.1051 51.6441 49.6033 28.3171 39.2303 4.93347C37.0417 -0.00283902 29.4414 3.55644 31.6387 8.48363Z" fill="#ED1C24"/><path d="M71.4792 30.4448C49.8679 38.8955 27.8103 45.6863 5.29107 51.2595C0.0469266 52.5553 3.00953 60.346 8.19037 59.123C31.0199 53.7403 53.3296 46.5012 75.167 37.9705C80.1862 36.0049 76.4808 28.4856 71.4792 30.4448Z" fill="#ED1C24"/></svg>